<?xml version="1.0" encoding="utf-8"?>
<!-- Generator: Adobe Illustrator 18.0.0, SVG Export Plug-In . SVG Version: 6.00 Build 0)  -->
<!DOCTYPE svg PUBLIC "-//W3C//DTD SVG 1.1//EN" "http://www.w3.org/Graphics/SVG/1.1/DTD/svg11.dtd">
<svg version="1.1" id="Layer_1" xmlns="http://www.w3.org/2000/svg" xmlns:xlink="http://www.w3.org/1999/xlink" x="0px" y="0px"
	 viewBox="117.1 33.1 347.9 725.8" enable-background="new 117.1 33.1 347.9 725.8" xml:space="preserve">
<g>
	<g>
		<path fill="#82C568" d="M449.6,54.2c-9.9-9.9-23-15.3-37-15.3h-4.4v-1.8v-1.3l-1.1-0.8l-1.8-1.3l-0.7-0.6h-0.9H353h-0.7l-0.6,0.4
			l-2.4,1.3l-1.4,0.8v1.6V39H174.3c-14,0-27.1,5.4-37,15.3S122,77.3,122,91.2v45.4h-0.9H120l-0.8,0.8l-1.3,1.3l-0.8,0.8v1.1v30.1
			v1.1l0.8,0.8l1.3,1.4l0.8,0.8h1.1h0.9v29.7h-0.9H120l-0.8,0.8l-1.3,1.4l-0.8,0.8v1.1v22.5v1.1l0.8,0.8l1.3,1.3l0.8,0.8h1.1h0.9
			v29.2h-0.9H120l-0.8,0.8l-1.3,1.4l-0.8,0.8v1.1v22.5v1.1l0.8,0.8l1.3,1.4l0.8,0.8h1.1h0.9v411.7c0,13.9,5.4,27.1,15.3,36.9
			c9.9,9.9,23,15.3,37,15.3h238.4c14,0,27.1-5.4,37-15.3c9.9-9.9,15.3-23,15.3-36.9V91.1C465,77.2,459.5,64.1,449.6,54.2z
			 M350.7,37.1l2.4-1.3h50.8l1.8,1.3v1.8h-54.9L350.7,37.1L350.7,37.1z M139.9,56.8c9.2-9.2,21.4-14.2,34.4-14.2h238.4
			c13,0,25.2,5.1,34.4,14.2s14.3,21.4,14.3,34.4v11.2h-3.6V91.1c0-24.9-20.2-45-45.1-45H174.3c-24.9,0-45.1,20.1-45.1,45v11.3h-3.6
			V91.1C125.7,78.1,130.7,65.9,139.9,56.8z M461.4,107.8v582.8h-3.6V107.8H461.4z M454.2,91.1v615.6c0,22.8-18.6,41.4-41.5,41.4
			H174.3c-22.9,0-41.5-18.6-41.5-41.4V91.1c0-22.8,18.6-41.4,41.5-41.4h238.4C435.6,49.7,454.2,68.3,454.2,91.1z M125.7,295v-2.7
			v-25.2v-2.7v-29.2v-2.7v-25.2v-2.7v-29.7v-2.7v-32.9v-2.7v-28.8h3.6v582.8h-3.6C125.7,690.6,125.7,295,125.7,295z M121.2,172.1
			l-1.3-1.4v-30.1c0.4-0.4,0.8-0.8,1.3-1.4h0.9v32.9H121.2z M121.2,232.4l-1.3-1.4v-22.5c0.4-0.4,0.8-0.8,1.3-1.3h0.9v25.2H121.2z
			 M121.2,292.3l-1.3-1.4v-22.5c0.4-0.4,0.8-0.8,1.3-1.3h0.9v25.2L121.2,292.3L121.2,292.3z M447.1,741.1
			c-9.2,9.2-21.4,14.2-34.4,14.2H174.3c-13,0-25.2-5.1-34.4-14.2c-9.2-9.2-14.3-21.4-14.3-34.4v-10.8h3.6v10.8
			c0,24.9,20.2,45,45.1,45h238.4c24.9,0,45.1-20.1,45.1-45v-10.8h3.6v10.8C461.4,719.7,456.3,731.9,447.1,741.1z"/>
		<path fill="#82C568" d="M267.9,109.6h49.5c3.7,0,6.8-3,6.8-6.8c0-3.7-3-6.8-6.8-6.8h-49.5c-3.7,0-6.8,3-6.8,6.8
			S264.1,109.6,267.9,109.6z M267.9,99.7h49.5c1.7,0,3.2,1.4,3.2,3.1s-1.4,3.2-3.2,3.2h-49.5c-1.7,0-3.1-1.4-3.1-3.2
			C264.7,101.1,266.1,99.7,267.9,99.7z"/>
		<path fill="#82C568" d="M437.1,139.7h-288c-2,0-3.6,1.6-3.6,3.6v511.2c0,2,1.6,3.6,3.6,3.6h288c2,0,3.6-1.6,3.6-3.6V143.3
			C440.7,141.3,439,139.7,437.1,139.7z M437.1,654.5h-288V143.3h288V654.5z"/>
		<path fill="#82C568" d="M293.3,674.3c-16.8,0-30.4,13.6-30.4,30.4c0,16.8,13.6,30.4,30.4,30.4s30.4-13.6,30.4-30.4
			C323.7,687.9,310.1,674.3,293.3,674.3z M293.3,731.5c-14.8,0-26.8-12-26.8-26.8s12-26.8,26.8-26.8s26.8,12,26.8,26.8
			S308,731.5,293.3,731.5z"/>
		<path fill="#82C568" d="M293.1,83.3c4.2,0,7.6-3.4,7.6-7.7c0-4.2-3.4-7.7-7.6-7.7s-7.6,3.4-7.6,7.7
			C285.4,79.9,288.8,83.3,293.1,83.3z M293.1,70.7c2.7,0,5,2.2,5,4.9c0,2.7-2.2,4.9-5,4.9c-2.7,0-5-2.2-5-4.9
			C288.1,72.9,290.3,70.7,293.1,70.7z"/>
		<circle fill="#82C568" cx="293.1" cy="75.5" r="2.7"/>
	</g>
	<rect x="133.3" y="115.3" opacity="0.1" fill="#FFFFFF" enable-background="new    " width="320" height="568"/>
</g>
</svg>
