<?xml version="1.0" encoding="utf-8"?>
<!-- Generator: Adobe Illustrator 18.0.0, SVG Export Plug-In . SVG Version: 6.00 Build 0)  -->
<!DOCTYPE svg PUBLIC "-//W3C//DTD SVG 1.1//EN" "http://www.w3.org/Graphics/SVG/1.1/DTD/svg11.dtd">
<svg version="1.1" id="Layer_1" xmlns="http://www.w3.org/2000/svg" xmlns:xlink="http://www.w3.org/1999/xlink" x="0px" y="0px"
	 viewBox="130.9 -10 379.6 802" enable-background="new 130.9 -10 379.6 802" xml:space="preserve">
<g>
	<g>
		<path fill="#BFC1C4" d="M493.7,17.7C482.9,6.9,468.6,1,453.4,1h-4.8v-2v-1.4l-1.2-0.9l-2-1.4l-0.8-0.7h-1h-55.3h-0.8l-0.7,0.4
			l-2.6,1.4l-1.5,0.9v1.7v2H193.3c-15.3,0-29.6,5.9-40.4,16.7c-10.8,10.8-16.7,25.1-16.7,40.3v49.5h-1h-1.2l-0.9,0.9l-1.4,1.4
			l-0.9,0.9v1.2v32.8v1.2l0.9,0.9l1.4,1.5l0.9,0.9h1.2h1v32.4h-1h-1.2l-0.9,0.9l-1.4,1.5l-0.9,0.9v1.2v24.6v1.2l0.9,0.9l1.4,1.4
			l0.9,0.9h1.2h1v31.9h-1h-1.2l-0.9,0.9l-1.4,1.5l-0.9,0.9v1.2v24.6v1.2l0.9,0.9l1.4,1.5l0.9,0.9h1.2h1v449.3
			c0,15.2,5.9,29.6,16.7,40.3c10.8,10.8,25.1,16.7,40.4,16.7h260.1c15.3,0,29.6-5.9,40.4-16.7c10.8-10.8,16.7-25.1,16.7-40.3V57.9
			C510.5,42.8,504.5,28.5,493.7,17.7z M385.8-1l2.6-1.4h55.4l2,1.4v2h-59.9L385.8-1L385.8-1z M155.8,20.5c10-10,23.4-15.5,37.5-15.5
			h260.1c14.2,0,27.5,5.6,37.5,15.5c10,9.9,15.6,23.4,15.6,37.5v12.2h-3.9V57.9c0-27.2-22-49.1-49.2-49.1H193.3
			c-27.2,0-49.2,21.9-49.2,49.1v12.3h-3.9V57.9C140.3,43.7,145.7,30.4,155.8,20.5z M506.6,76.1v636h-3.9v-636H506.6z M498.8,57.9
			v671.7c0,24.9-20.3,45.2-45.3,45.2H193.3c-25,0-45.3-20.3-45.3-45.2V57.9c0-24.9,20.3-45.2,45.3-45.2h260.1
			C478.5,12.7,498.8,33,498.8,57.9z M140.3,280.4v-2.9V250V247v-31.9v-2.9v-27.5v-2.9v-32.4v-2.9v-35.9v-2.9V76.1h3.9v636h-3.9
			V280.4z M135.4,146.3l-1.4-1.5v-32.8c0.4-0.4,0.9-0.9,1.4-1.5h1v35.9H135.4z M135.4,212.1l-1.4-1.5V186c0.4-0.4,0.9-0.9,1.4-1.4h1
			v27.5H135.4z M135.4,277.5l-1.4-1.5v-24.6c0.4-0.4,0.9-0.9,1.4-1.4h1v27.5L135.4,277.5L135.4,277.5z M491,767.2
			c-10,10-23.4,15.5-37.5,15.5H193.3c-14.2,0-27.5-5.6-37.5-15.5c-10-10-15.6-23.4-15.6-37.5v-11.8h3.9v11.8
			c0,27.2,22,49.1,49.2,49.1h260.1c27.2,0,49.2-21.9,49.2-49.1v-11.8h3.9v11.8C506.6,743.9,501,757.2,491,767.2z"/>
		<path fill="#BFC1C4" d="M295.5,78.1h54c4,0,7.4-3.3,7.4-7.4c0-4-3.3-7.4-7.4-7.4h-54c-4,0-7.4,3.3-7.4,7.4S291.3,78.1,295.5,78.1z
			 M295.5,67.3h54c1.9,0,3.5,1.5,3.5,3.4c0,1.9-1.5,3.5-3.5,3.5h-54c-1.9,0-3.4-1.5-3.4-3.5C292,68.8,293.5,67.3,295.5,67.3z"/>
		<path fill="#BFC1C4" d="M480.1,111H165.8c-2.2,0-3.9,1.7-3.9,3.9v557.8c0,2.2,1.7,3.9,3.9,3.9h314.3c2.2,0,3.9-1.7,3.9-3.9V114.9
			C484,112.7,482.2,111,480.1,111z M480.1,672.7H165.8V114.9h314.3V672.7z"/>
		<path fill="#BFC1C4" d="M323.2,694.3c-18.3,0-33.2,14.8-33.2,33.2s14.8,33.2,33.2,33.2s33.2-14.8,33.2-33.2
			C356.4,709.2,341.5,694.3,323.2,694.3z M323.2,756.7c-16.1,0-29.2-13.1-29.2-29.2s13.1-29.2,29.2-29.2s29.2,13.1,29.2,29.2
			S339.2,756.7,323.2,756.7z"/>
		<path fill="#BFC1C4" d="M323,49.4c4.6,0,8.3-3.7,8.3-8.4c0-4.6-3.7-8.4-8.3-8.4s-8.3,3.7-8.3,8.4C314.6,45.7,318.3,49.4,323,49.4z
			 M323,35.7c2.9,0,5.5,2.4,5.5,5.3c0,2.9-2.4,5.3-5.5,5.3c-2.9,0-5.5-2.4-5.5-5.3C317.5,38.1,319.9,35.7,323,35.7z"/>
		<circle fill="#BFC1C4" cx="323" cy="40.9" r="2.9"/>
	</g>
	<rect x="148.6" y="84.3" opacity="0.1" fill="#BFC1C4" enable-background="new    " width="349.2" height="619.8"/>
</g>
</svg>
